<svg width="21" height="21" viewBox="0 0 21 21" fill="none" xmlns="http://www.w3.org/2000/svg">
    <path d="M14.6666 6.21796H12.1666C11.7083 6.21796 11.3333 6.59296 11.3333 7.05129C11.3333 7.50962 11.7083 7.88462 12.1666 7.88462H14.6666C16.0416 7.88462 17.1666 9.00962 17.1666 10.3846C17.1666 11.7596 16.0416 12.8846 14.6666 12.8846H12.1666C11.7083 12.8846 11.3333 13.2596 11.3333 13.718C11.3333 14.1763 11.7083 14.5513 12.1666 14.5513H14.6666C16.9666 14.5513 18.8333 12.6846 18.8333 10.3846C18.8333 8.08462 16.9666 6.21796 14.6666 6.21796ZM7.16663 10.3846C7.16663 10.843 7.54163 11.218 7.99996 11.218H13C13.4583 11.218 13.8333 10.843 13.8333 10.3846C13.8333 9.92629 13.4583 9.55129 13 9.55129H7.99996C7.54163 9.55129 7.16663 9.92629 7.16663 10.3846ZM8.83329 12.8846H6.33329C4.95829 12.8846 3.83329 11.7596 3.83329 10.3846C3.83329 9.00962 4.95829 7.88462 6.33329 7.88462H8.83329C9.29163 7.88462 9.66663 7.50962 9.66663 7.05129C9.66663 6.59296 9.29163 6.21796 8.83329 6.21796H6.33329C4.03329 6.21796 2.16663 8.08462 2.16663 10.3846C2.16663 12.6846 4.03329 14.5513 6.33329 14.5513H8.83329C9.29163 14.5513 9.66663 14.1763 9.66663 13.718C9.66663 13.2596 9.29163 12.8846 8.83329 12.8846Z" fill="black" fill-opacity="0.54"/>
    </svg>
    